Coordinates																																									
version=1																																									
nRows=28																																									
nColumns=42																																									
inDegrees=yes																																									
																																									
"Units are S.I. units (second, meters, Newtons, ...)"																																									
Angles are in degrees.																																									
																																									
endheader																																									
time	pelvis_tx	pelvis_ty	pelvis_tz	pelvis_tilt	pelvis_list	pelvis_rotation	hip_flexion_r	hip_adduction_r	hip_rotation_r	knee_angle_r	ankle_angle_r	subtalar_angle_r	mtp_angle_r	hip_flexion_l	hip_adduction_l	hip_rotation_l	knee_angle_l	ankle_angle_l	subtalar_angle_l	mtp_angle_l	lumbar_extension	lumbar_bending	lumbar_rotation	ground_force_vx	ground_force_vy	ground_force_vz	ground_force_px	ground_force_py	ground_force_pz	ground_force_vx	ground_force_vy	ground_force_vz	ground_force_px	ground_force_py	ground_force_pz	ground_torque_x	ground_torque_y	ground_torque_z	ground_torque_x	ground_torque_y	ground_torque_z
0.82	0.126666	0.686055	-0.174514	-12.574138	2.07508	-12.760261	-5.790625	-1.252124	-9.812755	-22.276655	7.425527	0	0	34.100898	-2.202379	-32.643865	-8.571161	6.614574	0	0	28.616814	2.046541	12.658617	44.830597	141.469376	-2.444271	-0.18115	-0.001309	-0.192573	-24.919563	143.125137	-4.989008	0.270416	-0.005112	-0.202402	-0.000951	1.028454	-0.002295	0.000657	-0.05022	-0.000968
0.83	0.141655	0.686676	-0.174445	-11.776494	3.102123	-12.351202	-5.58461	-2.8421	-10.239928	-25.461994	5.100591	0	0	32.835854	-0.443962	-29.626417	-9.358138	5.793962	0	0	28.38023	0.786654	12.650508	38.289982	110.826637	-1.630425	-0.179872	-0.001789	-0.193462	-35.2211	179.874374	-3.590851	0.273777	-0.00544	-0.202874	-0.000678	0.732578	-0.001635	0.000797	-0.060995	-0.001176
0.84	0.156474	0.687303	-0.174444	-11.030925	4.16019	-11.947285	-5.184009	-4.430826	-10.546725	-28.906648	2.842472	0	0	31.679872	1.317299	-26.766422	-10.24341	5.047529	0	0	28.173533	-0.483041	12.614939	30.21051	81.296677	-0.935401	-0.179293	-0.001813	-0.194326	-44.93755	213.071472	-0.882897	0.277154	-0.005687	-0.203853	-0.000409	0.441977	-0.000986	0.000629	-0.048076	-0.000927
0.85	0.170949	0.687929	-0.174518	-10.38363	5.219791	-11.552968	-4.487855	-5.956577	-10.67693	-32.605431	0.775565	0	0	30.678041	3.021824	-24.207661	-11.23046	4.44153	0	0	28.014277	-1.719775	12.522475	21.54262	55.078423	-0.457241	-0.178705	-0.001508	-0.195175	-53.135677	241.58519	2.64925	0.280559	-0.005768	-0.205323	-0.000161	0.173947	-0.000388	-0.000151	0.011525	0.000222
0.86	0.184971	0.688575	-0.174659	-9.849008	6.253532	-11.17875	-3.450698	-7.370162	-10.589004	-36.534463	-0.983319	0	0	29.817963	4.634256	-22.020132	-12.275689	4.03798	0	0	27.899041	-2.886544	12.361129	13.445155	33.787891	-0.188682	-0.177176	-0.001004	-0.195915	-59.337337	264.851288	6.258063	0.28388	-0.005648	-0.207076	0.000049	-0.053382	0.000119	-0.001699	0.129916	0.002504
0.87	0.198493	0.689273	-0.174847	-9.42236	7.232348	-10.838058	-2.073093	-8.626524	-10.259077	-40.644455	-2.335055	0	0	29.051247	6.129781	-20.225925	-13.306596	3.878853	0	0	27.814736	-3.948931	12.131283	0	0	0	0	0	0	-63.168171	283.041382	9.374228	0.286908	-0.005337	-0.208853	0	0	0	-0.003852	0.294631	0.005679
0.88	0.211515	0.690055	-0.175055	-9.095963	8.122795	-10.542418	-0.382433	-9.677369	-9.683193	-44.862113	-3.210001	0	0	28.32141	7.481847	-18.820921	-14.244091	3.976807	0	0	27.751352	-4.872354	11.837023	0	0	0	0	0	0	-64.54232	296.52594	11.783572	0.289454	-0.004875	-0.210445	0	0	0	-0.006184	0.472978	0.009117
0.89	0.224063	0.690946	-0.17525	-8.867505	8.887802	-10.298849	1.582166	-10.471045	-8.87754	-49.09722	-3.57695	0	0	27.581849	8.657678	-17.784976	-15.018843	4.3147	0	0	27.707453	-5.62239	11.481338	0	0	0	0	0	0	-63.629894	305.24649	13.512676	0.291419	-0.004323	-0.211723	0	0	0	-0.008281	0.633379	0.012208
0.9	0.236184	0.691967	-0.175401	-8.735404	9.490369	-10.107352	3.770137	-10.960265	-7.880768	-53.249555	-3.445983	0	0	26.796722	9.622937	-17.084118	-15.580317	4.851301	0	0	27.684374	-6.169707	11.063216	0	0	0	0	0	0	-60.724709	308.912476	14.694346	0.292814	-0.003744	-0.212652	0	0	0	-0.009881	0.755697	0.014566
0.91	0.247942	0.693141	-0.175489	-8.691398	9.898267	-9.957816	6.115585	-11.111939	-6.756051	-57.215269	-2.864103	0	0	25.936749	10.350003	-16.669603	-15.901423	5.53042	0	0	27.678766	-6.49627	10.574782	0	0	0	0	0	0	-56.251167	307.329224	15.504209	0.293762	-0.003192	-0.213282	0	0	0	-0.010836	0.828754	0.015974
0.92	0.259405	0.694479	-0.175504	-8.724845	10.088511	-9.830663	8.549474	-10.913018	-5.582976	-60.897188	-1.904215	0	0	24.986567	10.821972	-16.480072	-15.980927	6.2909	0	0	27.686083	-6.597606	10.002856	0	0	0	0	0	0	-50.714836	300.624268	16.129198	0.294459	-0.002699	-0.213728	0	0	0	-0.011116	0.85019	0.016387
0.93	0.270637	0.695968	-0.175448	-8.829456	10.051454	-9.700878	11.015873	-10.374369	-4.444297	-64.21612	-0.650179	0	0	23.95229	11.034593	-16.446327	-15.841036	7.075168	0	0	27.706557	-6.482998	9.333795	0	0	0	0	0	0	-44.626472	289.364594	16.708063	0.29515	-0.00228	-0.214128	0	0	0	-0.010831	0.828374	0.015967
0.94	0.281691	0.697576	-0.175335	-8.999089	9.793033	-9.540524	13.471862	-9.535912	-3.420693	-67.115652	0.814074	0	0	22.852923	11.000493	-16.49401	-15.518429	7.834889	0	0	27.741513	-6.1763	8.555589	0	0	0	0	0	0	-38.464325	274.558868	17.309433	0.296094	-0.001934	-0.214615	0	0	0	-0.010143	0.775791	0.014953
0.95	0.292618	0.699255	-0.175193	-9.222468	9.332301	-9.320132	15.881858	-8.465447	-2.590208	-69.559924	2.403729	0	0	21.708407	10.749022	-16.546456	-15.05449	8.534825	0	0	27.788474	-5.712894	7.657452	0	0	0	0	0	0	-32.627342	257.58493	17.928989	0.297538	-0.00165	-0.215294	0	0	0	-0.009204	0.703981	0.013569
0.96	0.303457	0.700955	-0.175058	-9.484699	8.695107	-9.012694	18.217759	-7.245967	-2.021263	-71.529272	4.031559	0	0	20.536427	10.317301	-16.53471	-14.490755	9.155904	0	0	27.841775	-5.131989	6.631902	0	0	0	0	0	0	-27.393326	240.048676	18.492516	0.299684	-0.001421	-0.216203	0	0	0	-0.00814	0.622545	0.012
0.97	0.314241	0.702625	-0.174958	-9.767911	7.910286	-8.599295	20.45788	-5.962231	-1.761455	-73.017529	5.619536	0	0	19.350547	9.742158	-16.411394	-13.866838	9.695074	0	0	27.89251	-4.471713	5.480166	0	0	0	0	0	0	-22.900911	223.523544	18.893858	0.302666	-0.001245	-0.217318	0	0	0	-0.007032	0.537794	0.010366
0.98	0.324987	0.704215	-0.17491	-10.051197	7.010537	-8.072711	22.58498	-4.694185	-1.830094	-74.030556	7.112075	0	0	18.158746	9.059039	-16.158233	-13.218075	10.161254	0	0	27.928502	-3.768793	4.217352	0	0	0	0	0	0	-19.175018	209.313995	19.034094	0.306508	-0.001123	-0.218558	0	0	0	-0.005899	0.451197	0.008697
0.99	0.335697	0.705679	-0.174915	-10.314551	6.032476	-7.436347	24.587218	-3.512527	-2.218243	-74.583029	8.477783	0	0	16.966516	8.302308	-15.781968	-12.574464	10.570592	0	0	27.937769	-3.05762	2.87172	0	0	0	0	0	0	-16.156504	198.288269	18.854856	0.311117	-0.001055	-0.219801	0	0	0	-0.004703	0.359679	0.006933
1	0.346367	0.706976	-0.174974	-10.542068	5.013649	-6.697523	26.456326	-2.47631	-2.898192	-74.693241	9.705147	0	0	15.778939	7.505205	-15.299617	-11.960672	10.942372	0	0	27.910706	-2.368533	1.475662	0	0	0	0	0	0	-13.741903	190.809601	18.358517	0.316297	-0.001039	-0.220918	0	0	0	-0.003362	0.257158	0.004957
1.01	0.356991	0.708076	-0.175094	-10.721809	3.991545	-5.862359	28.184035	-1.634606	-3.83338	-74.379981	10.798429	0	0	14.59963	6.702167	-14.725598	-11.395669	11.294944	0	0	27.839465	-1.728495	0.059336	0	0	0	0	0	0	-11.823233	186.767395	17.608749	0.321789	-0.001061	-0.221821	0	0	0	-0.001791	0.137002	0.002641
1.02	0.36756	0.708956	-0.175278	-10.845476	3.005026	-4.941568	29.762706	-1.025352	-4.977086	-73.662771	11.772529	0	0	13.430144	5.929695	-14.074089	-10.891787	11.64279	0	0	27.718026	-1.161446	-1.343507	0	0	0	0	0	0	-10.310154	185.714844	16.720705	0.327342	-0.001099	-0.222476	0	0	0	0.000045	-0.003475	-0.000067
1.03	0.378062	0.709601	-0.175514	-10.911013	2.093774	-3.960213	31.190277	-0.670215	-6.268045	-72.561785	12.646099	0	0	12.272692	5.223192	-13.367815	-10.454457	11.995877	0	0	27.545205	-0.686189	-2.68906	0	0	0	0	0	0	-9.132483	187.048386	15.833094	0.332812	-0.00113	-0.222886	0	0	0	0.002098	-0.16048	-0.003093
1.04	0.388489	0.709992	-0.175772	-10.926551	1.296559	-2.955638	32.474681	-0.576148	-7.637907	-71.096901	13.436416	0	0	11.134918	4.615924	-12.634837	-10.083157	12.358997	0	0	27.328536	-0.316588	-3.930012	0	0	0	0	0	0	-8.247614	190.16507	15.083338	0.338179	-0.001134	-0.22308	0	0	0	0.004247	-0.324807	-0.006261
1.05	0.398833	0.710113	-0.176027	-10.908963	0.645748	-1.96395	33.629638	-0.739942	-9.029826	-69.284175	14.156317	0	0	10.029235	4.136916	-11.895815	-9.772564	12.731339	0	0	27.083411	-0.061785	-5.031631	0	0	0	0	0	0	-7.630994	194.553894	14.580081	0.343511	-0.001098	-0.223113	0	0	0	0.006323	-0.483595	-0.009321
1.06	0.409102	0.70996	-0.176259	-10.877679	0.153226	-1.010932	34.663381	-1.139425	-10.414026	-67.12796	14.809189	0	0	8.967075	3.796878	-11.161699	-9.515205	13.110717	0	0	26.828384	0.082007	-5.983811	0	0	0	0	0	0	-7.257912	199.844849	14.391307	0.348897	-0.001027	-0.223028	0	0	0	0.00815	-0.623356	-0.012015
1.07	0.419323	0.709548	-0.176445	-10.849244	-0.200195	-0.115425	35.571516	-1.719285	-11.788178	-64.61585	15.385028	0	0	7.953962	3.573598	-10.447634	-9.304427	13.499495	0	0	26.58116	0.140452	-6.797912	0	0	0	0	0	0	-7.081244	205.791748	14.533111	0.354364	-0.000941	-0.222863	0	0	0	0.009576	-0.732388	-0.014117
1.08	0.429535	0.70891	-0.176548	-10.834051	-0.454748	0.705063	36.33911	-2.399302	-13.167376	-61.726933	15.864241	0	0	6.986563	3.420586	-9.782942	-9.133448	13.903257	0	0	26.355296	0.153718	-7.49328	0	0	0	0	0	0	-7.005224	212.228867	14.974437	0.359839	-0.000867	-0.222649	0	0	0	0.010497	-0.802842	-0.015475
1.09	0.439783	0.708081	-0.176524	-10.836795	-0.647807	1.436724	36.950302	-3.105217	-14.576669	-58.449754	16.226696	0	0	6.054337	3.294522	-9.203229	-8.992759	14.323281	0	0	26.159121	0.155565	-8.088048	0	0	0	0	0	0	-6.877469	219.045166	15.642662	0.365157	-0.000817	-0.222415	0	0	0	0.010873	-0.831582	-0.016029
